<svg xmlns="http://www.w3.org/2000/svg" viewBox="0 0 800 800" width="800" height="800" preserveAspectRatio="xMidYMid meet" style="width: 100%; height: 100%; transform: translate3d(0px, 0px, 0px);"><defs><clipPath id="animationMask_H4HfQ6Nts9"><rect width="800" height="800" x="0" y="0"></rect></clipPath><clipPath id="cp_dQUuS6sR"><path d="M0,0 L400,0 L400,400 L0,400z"></path></clipPath><clipPath id="cp_VS0kms6r"><path d="M0,0 L500,0 L500,500 L0,500z"></path></clipPath></defs><g clip-path="url(#animationMask_H4HfQ6Nts9)"><g transform="matrix(1,0,0,1,0,0)" opacity="1" style="display: block;"><g opacity="1" transform="matrix(1,0,0,1,434.8580017089844,705)"><g opacity="1" transform="matrix(-0.7191457748413086,-0.6948592066764832,-0.6948592066764832,0.7191457748413086,-111.51146697998047,-107.74556732177734)"></g><g opacity="1" transform="matrix(1,0,0,1,0,0)"><g opacity="1" transform="matrix(1,0,0,1,0,0)"></g></g><g opacity="1" transform="matrix(1,0,0,1,0,0)"><g opacity="1" transform="matrix(1,0,0,1,-200,-200)"></g></g><g opacity="1" transform="matrix(1,0,0,1,-135,0)"><g opacity="1" transform="matrix(1,0,0,1,0,0)"></g></g></g><g opacity="1" transform="matrix(1,0,0,1,0,0)"><g opacity="1" transform="matrix(1,0,0,1,434.8580017089844,705)"><path stroke-linecap="round" stroke-linejoin="round" fill-opacity="0" stroke="rgb(94,121,188)" stroke-opacity="1" stroke-width="38" d=" M0,0 C0,0 -1.08,-83.72 -1.53,-109.63 C-1.97,-135.55 -3.77,-219.26 -3.77,-219.26"></path><g opacity="1" transform="matrix(-0.7191457748413086,-0.6948592066764832,-0.6948592066764832,0.7191457748413086,-111.51146697998047,-107.74556732177734)"></g></g></g></g><g transform="matrix(1,0,0,1,0,0)" opacity="1" style="display: block;"><g opacity="1" transform="matrix(1,0,0,1,375,705)"><g opacity="1" transform="matrix(0.7140451669692993,-0.7000996470451355,0.7000996470451355,0.7140451669692993,112.3949966430664,-110.19989013671875)"></g><g opacity="1" transform="matrix(1,0,0,1,0,0)"><g opacity="1" transform="matrix(1,0,0,1,0,0)"></g></g><g opacity="1" transform="matrix(1,0,0,1,0,0)"><g opacity="1" transform="matrix(1,0,0,1,-200,-200)"></g></g><g opacity="1" transform="matrix(1,0,0,1,-135,0)"><g opacity="1" transform="matrix(1,0,0,1,0,0)"></g></g></g><g opacity="1" transform="matrix(1,0,0,1,0,0)"><g opacity="1" transform="matrix(1,0,0,1,375,705)"><path stroke-linecap="round" stroke-linejoin="round" fill-opacity="0" stroke="rgb(94,121,188)" stroke-opacity="1" stroke-width="38" d=" M0,0 C0,0 0,0 0,0 C0,0 0.84,-85.07 1.1,-111.3 C1.36,-137.52 2.2,-222.59 2.2,-222.59"></path><g opacity="1" transform="matrix(0.7140451669692993,-0.7000996470451355,0.7000996470451355,0.7140451669692993,112.3949966430664,-110.19989013671875)"></g></g></g></g><g clip-path="url(#cp_dQUuS6sR)" transform="matrix(0.9980869293212891,0.06182650476694107,-0.06182650476694107,0.9980869293212891,222.8053436279297,176.511474609375)" opacity="1" style="display: block;"><g transform="matrix(0.49024999141693115,0,0,0.49024999141693115,140.9248809814453,109.536376953125)" opacity="1" style="display: block;"><g opacity="1" transform="matrix(1,0,0,1,120.25,348.25)"><path fill="rgb(94,121,187)" fill-opacity="1" d=" M120,0 C120,66.27400207519531 66.27400207519531,120 0,120 C-66.27400207519531,120 -120,66.27400207519531 -120,0 C-120,-66.27400207519531 -66.27400207519531,-120 0,-120 C66.27400207519531,-120 120,-66.27400207519531 120,0z"></path></g><g opacity="1" transform="matrix(1,0,0,1,120.25,139.75)"><path fill="rgb(102,52,44)" fill-opacity="1" d=" M-98,-41.5 C-98,-95.6240005493164 -54.124000549316406,-139.5 0,-139.5 C54.124000549316406,-139.5 98,-95.6240005493164 98,-41.5 C98,-41.5 98,139.5 98,139.5 C98,139.5 -98,139.5 -98,139.5 C-98,139.5 -98,-41.5 -98,-41.5z"></path></g><g opacity="1" transform="matrix(1,0,0,1,120.25,144.95399475097656)"><path fill="rgb(48,26,18)" fill-opacity="1" d=" M67,-118.2249984741211 C60.99300003051758,-123.85299682617188 54.277000427246094,-128.73500061035156 47,-132.72000122070312 C47,-132.72000122070312 47,-26.20400047302246 47,-26.20400047302246 C47,-26.20400047302246 -44,-26.20400047302246 -44,-26.20400047302246 C-44,-26.20400047302246 -44,-134.29600524902344 -44,-134.29600524902344 C-51.2239990234375,-130.66000366210938 -57.93600082397461,-126.15599822998047 -64,-120.9229965209961 C-64,-120.9229965209961 -64,-26.20400047302246 -64,-26.20400047302246 C-64,-26.20400047302246 -98,-26.20400047302246 -98,-26.20400047302246 C-98,-26.20400047302246 -98,134.29600524902344 -98,134.29600524902344 C-98,134.29600524902344 98,134.29600524902344 98,134.29600524902344 C98,134.29600524902344 98,-26.20400047302246 98,-26.20400047302246 C98,-26.20400047302246 67,-26.20400047302246 67,-26.20400047302246 C67,-26.20400047302246 67,-118.2249984741211 67,-118.2249984741211z"></path></g></g></g><g transform="matrix(1,0,0,1,0,0)" opacity="1" style="display: block;"><g opacity="1" transform="matrix(1,0,0,1,457.9849853515625,501.9649963378906)"><g opacity="1" transform="matrix(-0.6833119988441467,-0.7301265001296997,-0.7301265001296997,0.6833119988441467,-81.46240997314453,-87.04349517822266)"></g><g opacity="1" transform="matrix(1,0,0,1,0,0)"><g opacity="1" transform="matrix(1,0,0,1,0,0)"></g></g><g opacity="1" transform="matrix(1,0,0,1,0,0)"><g opacity="1" transform="matrix(1,0,0,1,-200,-200)"></g></g><g opacity="1" transform="matrix(1,0,0,1,-135,0)"><g opacity="1" transform="matrix(1,0,0,1,0,0)"></g></g></g><g opacity="1" transform="matrix(1,0,0,1,0,0)"><g opacity="1" transform="matrix(1,0,0,1,457.9849853515625,501.9649963378906)"><path stroke-linecap="round" stroke-linejoin="round" fill-opacity="0" stroke="rgb(102,52,45)" stroke-opacity="1" stroke-width="34" d=" M0,0 C0,0 0,0 0,0 C0,0 27.62,-57.5 28.48,-83.4 C29.34,-109.31 5.58,-168.51 5.58,-168.51"></path><g opacity="1" transform="matrix(-0.6833119988441467,-0.7301265001296997,-0.7301265001296997,0.6833119988441467,-81.46240997314453,-87.04349517822266)"></g></g></g></g><g clip-path="url(#cp_VS0kms6r)" transform="matrix(0.7999468445777893,0.00922250933945179,-0.00922250933945179,0.7999468445777893,216.42742919921875,39.523014068603516)" opacity="1" style="display: block;"><g transform="matrix(0.5651500225067139,0,0,0.5651500225067139,139.51316833496094,115.82987213134766)" opacity="1" style="display: block;"><g opacity="1" transform="matrix(1,0,0,1,116.2750015258789,70.74400329589844)"><path fill="rgb(208,172,154)" fill-opacity="1" d=" M-19.975000381469727,-34.65599822998047 C-19.975000381469727,-34.65599822998047 -19.975000381469727,-34.65599822998047 -19.975000381469727,-34.65599822998047 C-6.11299991607666,-42.659000396728516 11.604000091552734,-37.904998779296875 19.59600067138672,-24.03700065612793 C19.59600067138672,-24.03700065612793 30.60099983215332,-4.945000171661377 30.60099983215332,-4.945000171661377 C38.59400177001953,8.92300033569336 33.83700180053711,26.652000427246094 19.975000381469727,34.654998779296875 C6.11299991607666,42.65800094604492 -11.602999687194824,37.904998779296875 -19.597000122070312,24.038000106811523 C-19.597000122070312,24.038000106811523 -30.60099983215332,4.945000171661377 -30.60099983215332,4.945000171661377 C-38.59400177001953,-8.92199993133545 -33.83599853515625,-26.652999877929688 -19.975000381469727,-34.65599822998047z"></path><path stroke-linecap="butt" stroke-linejoin="miter" fill-opacity="0" stroke-miterlimit="4" stroke="rgb(102,52,44)" stroke-opacity="1" stroke-width="20" d=" M-19.975000381469727,-34.65599822998047 C-19.975000381469727,-34.65599822998047 -19.975000381469727,-34.65599822998047 -19.975000381469727,-34.65599822998047 C-6.11299991607666,-42.659000396728516 11.604000091552734,-37.904998779296875 19.59600067138672,-24.03700065612793 C19.59600067138672,-24.03700065612793 30.60099983215332,-4.945000171661377 30.60099983215332,-4.945000171661377 C38.59400177001953,8.92300033569336 33.83700180053711,26.652000427246094 19.975000381469727,34.654998779296875 C6.11299991607666,42.65800094604492 -11.602999687194824,37.904998779296875 -19.597000122070312,24.038000106811523 C-19.597000122070312,24.038000106811523 -30.60099983215332,4.945000171661377 -30.60099983215332,4.945000171661377 C-38.59400177001953,-8.92199993133545 -33.83599853515625,-26.652999877929688 -19.975000381469727,-34.65599822998047z"></path></g><g opacity="1" transform="matrix(1,0,0,1,93.25,58.25)"><path fill="rgb(102,52,44)" fill-opacity="1" d=" M0,-58 C32.03300094604492,-58 58,-32.03300094604492 58,0 C58,32.03300094604492 32.03300094604492,58 0,58 C-32.03300094604492,58 -58,32.03300094604492 -58,0 C-58,-32.03300094604492 -32.03300094604492,-58 0,-58z"></path></g><g opacity="1" transform="matrix(1,0,0,1,93.25,58.25)"><path fill="rgb(208,172,154)" fill-opacity="1" d=" M0,-30 C16.56800079345703,-30 30,-16.56800079345703 30,0 C30,16.56800079345703 16.56800079345703,30 0,30 C-16.56800079345703,30 -30,16.56800079345703 -30,0 C-30,-16.56800079345703 -16.56800079345703,-30 0,-30z"></path></g><g opacity="1" transform="matrix(1,0,0,1,296.25,58.25)"><path fill="rgb(102,52,44)" fill-opacity="1" d=" M0,-58 C32.03200149536133,-58 58,-32.03300094604492 58,0 C58,32.03300094604492 32.03200149536133,58 0,58 C-32.03200149536133,58 -58,32.03300094604492 -58,0 C-58,-32.03300094604492 -32.03200149536133,-58 0,-58z"></path></g><g opacity="1" transform="matrix(1,0,0,1,296.25,58.25)"><path fill="rgb(208,172,154)" fill-opacity="1" d=" M0,-30 C16.56800079345703,-30 30,-16.56800079345703 30,0 C30,16.56800079345703 16.56800079345703,30 0,30 C-16.56800079345703,30 -30,16.56800079345703 -30,0 C-30,-16.56800079345703 -16.56800079345703,-30 0,-30z"></path></g><g opacity="1" transform="matrix(1,0,0,1,195.25,229.25)"><path fill="rgb(181,86,160)" fill-opacity="1" d=" M0,-195 C107.69499969482422,-195 195,-107.69499969482422 195,0 C195,107.69499969482422 107.69499969482422,195 0,195 C-107.69499969482422,195 -195,107.69499969482422 -195,0 C-195,-107.69499969482422 -107.69499969482422,-195 0,-195z"></path></g><g opacity="1" transform="matrix(1,0,0,1,195.25,244.25)"><path fill="rgb(102,52,44)" fill-opacity="1" d=" M0,-190 C104.93399810791016,-190 190,-104.93399810791016 190,0 C190,104.93399810791016 104.93399810791016,190 0,190 C-104.93399810791016,190 -190,104.93399810791016 -190,0 C-190,-104.93399810791016 -104.93399810791016,-190 0,-190z"></path></g><g opacity="1" transform="matrix(1,0,0,1,186.76300048828125,43.25)"><path fill="rgb(181,86,160)" fill-opacity="1" d=" M30,0 C30,0 -30,38.97100067138672 -30,38.97100067138672 C-30,38.97100067138672 -30,-38.97100067138672 -30,-38.97100067138672 C-30,-38.97100067138672 30,0 30,0z"></path></g><g opacity="1" transform="matrix(1,0,0,1,203.73699951171875,43.25)"><path fill="rgb(181,86,160)" fill-opacity="1" d=" M-30,0 C-30,0 30,-38.97100067138672 30,-38.97100067138672 C30,-38.97100067138672 30,38.97100067138672 30,38.97100067138672 C30,38.97100067138672 -30,0 -30,0z"></path></g><g opacity="1" transform="matrix(1,0,0,1,196.2480010986328,358.7359924316406)"><path fill="rgb(208,172,154)" fill-opacity="1" d=" M0,50.51300048828125 C56.33300018310547,50.51300048828125 102,5.2820000648498535 102,-50.51300048828125 C102,-50.51300048828125 -102,-50.51300048828125 -102,-50.51300048828125 C-102,5.2820000648498535 -56.332000732421875,50.51300048828125 0,50.51300048828125z"></path></g><g opacity="1" transform="matrix(1,0,0,1,196.25100708007812,308.22100830078125)"><path fill="rgb(208,172,154)" fill-opacity="1" d=" M101.9990005493164,0 C101.9990005493164,0 101.9990005493164,0 101.9990005493164,0 C101.9990005493164,19.31399917602539 86.34200286865234,34.97100067138672 67.02799987792969,34.97100067138672 C67.02799987792969,34.97100067138672 -67.02899932861328,34.97100067138672 -67.02899932861328,34.97100067138672 C-86.34300231933594,34.97100067138672 -101.9990005493164,19.31399917602539 -101.9990005493164,0 C-101.9990005493164,-19.312999725341797 -86.34300231933594,-34.97100067138672 -67.02899932861328,-34.97100067138672 C-67.02899932861328,-34.97100067138672 67.02799987792969,-34.97100067138672 67.02799987792969,-34.97100067138672 C86.34200286865234,-34.97100067138672 101.9990005493164,-19.312999725341797 101.9990005493164,0z"></path></g><g opacity="1" transform="matrix(1,0,0,1,196.23899841308594,317.1789855957031)"><path fill="rgb(48,26,18)" fill-opacity="1" d=" M0,21.047000885009766 C22.950000762939453,21.047000885009766 41.55500030517578,2.2009999752044678 41.55500030517578,-21.047000885009766 C41.55500030517578,-21.047000885009766 -41.55500030517578,-21.047000885009766 -41.55500030517578,-21.047000885009766 C-41.55500030517578,2.2009999752044678 -22.951000213623047,21.047000885009766 0,21.047000885009766z"></path></g><g opacity="1" transform="matrix(1,0,0,1,196.23899841308594,296.1319885253906)"><path fill="rgb(48,26,18)" fill-opacity="1" d=" M41.55500030517578,0 C41.55500030517578,0 41.55500030517578,0 41.55500030517578,0 C41.55500030517578,8.04699993133545 35.03200149536133,14.571000099182129 26.983999252319336,14.571000099182129 C26.983999252319336,14.571000099182129 -26.983999252319336,14.571000099182129 -26.983999252319336,14.571000099182129 C-35.03099822998047,14.571000099182129 -41.55500030517578,8.04699993133545 -41.55500030517578,0 C-41.55500030517578,-8.04699993133545 -35.03099822998047,-14.571000099182129 -26.983999252319336,-14.571000099182129 C-26.983999252319336,-14.571000099182129 26.983999252319336,-14.571000099182129 26.983999252319336,-14.571000099182129 C35.03200149536133,-14.571000099182129 41.55500030517578,-8.04699993133545 41.55500030517578,0z"></path></g><g opacity="1" transform="matrix(1,0,0,1,117.36199951171875,202.25)"><path fill="rgb(0,0,0)" fill-opacity="1" d=" M18.11400032043457,-7.480999946594238 C18.11400032043457,-7.480999946594238 26.224000930786133,-21.566999435424805 26.224000930786133,-21.566999435424805 C27.52400016784668,-23.822999954223633 30.4060001373291,-24.600000381469727 32.6609992980957,-23.295000076293945 C34.91400146484375,-21.989999771118164 35.683998107910156,-19.104000091552734 34.3849983215332,-16.847000122070312 C34.3849983215332,-16.847000122070312 25.757999420166016,-1.8660000562667847 25.757999420166016,-1.8660000562667847 C33.236000061035156,5.216000080108643 38.11000061035156,15.62600040435791 38.11000061035156,26.04800033569336 C38.111000061035156,29.885000228881836 35.007999420166016,33 31.173999786376953,33 C27.70400047302246,33 24.832000732421875,30.448999404907227 24.316999435424805,27.1200008392334 C24.316999435424805,27.1200008392334 24.2549991607666,27.125 24.2549991607666,27.125 C24.2549991607666,27.125 24.2189998626709,26.082000732421875 24.2189998626709,26.082000732421875 C23.75,12.52400016784668 13.050999641418457,1.746000051498413 -0.0010000000474974513,1.746000051498413 C-13.052000045776367,1.746000051498413 -23.75,12.52400016784668 -24.2189998626709,26.082000732421875 C-24.2189998626709,26.082000732421875 -24.256000518798828,27.125 -24.256000518798828,27.125 C-24.256000518798828,27.125 -24.31800079345703,27.1200008392334 -24.31800079345703,27.1200008392334 C-24.83300018310547,30.448999404907227 -27.704999923706055,33 -31.173999786376953,33 C-35.007999420166016,33 -38.111000061035156,29.885000228881836 -38.111000061035156,26.047000885009766 C-38.111000061035156,26.047000885009766 -38.111000061035156,26.041000366210938 -38.111000061035156,26.041000366210938 C-38.111000061035156,26.041000366210938 -38.111000061035156,25.983999252319336 -38.111000061035156,25.983999252319336 C-38.111000061035156,25.983999252319336 -38.111000061035156,25.979999542236328 -38.111000061035156,25.979999542236328 C-38.01100158691406,15.185999870300293 -32.92900085449219,4.531000137329102 -24.95400047302246,-2.6059999465942383 C-24.95400047302246,-2.6059999465942383 -33.15299987792969,-16.847000122070312 -33.15299987792969,-16.847000122070312 C-34.452999114990234,-19.104000091552734 -33.68199920654297,-21.989999771118164 -31.429000854492188,-23.295000076293945 C-29.173999786376953,-24.600000381469727 -26.292999267578125,-23.822999954223633 -24.993000030517578,-21.566999435424805 C-24.993000030517578,-21.566999435424805 -17.17300033569336,-7.986999988555908 -17.17300033569336,-7.986999988555908 C-13.152999877929688,-10.076000213623047 -8.704000473022461,-11.456000328063965 -3.9690001010894775,-11.954000473022461 C-3.9690001010894775,-11.954000473022461 -3.9690001010894775,-28.27899932861328 -3.9690001010894775,-28.27899932861328 C-3.9690001010894775,-30.884000778198242 -1.8619999885559082,-33 0.7419999837875366,-33 C3.3469998836517334,-33 5.452000141143799,-30.884000778198242 5.452000141143799,-28.27899932861328 C5.452000141143799,-28.27899932861328 5.452000141143799,-11.767999649047852 5.452000141143799,-11.767999649047852 C10.003000259399414,-11.104999542236328 14.267000198364258,-9.621000289916992 18.11400032043457,-7.480999946594238z"></path><path stroke-linecap="butt" stroke-linejoin="miter" fill-opacity="0" stroke-miterlimit="4" stroke="rgb(0,0,0)" stroke-opacity="1" stroke-width="2" d=" M18.11400032043457,-7.480999946594238 C18.11400032043457,-7.480999946594238 26.224000930786133,-21.566999435424805 26.224000930786133,-21.566999435424805 C27.52400016784668,-23.822999954223633 30.4060001373291,-24.600000381469727 32.6609992980957,-23.295000076293945 C34.91400146484375,-21.989999771118164 35.683998107910156,-19.104000091552734 34.3849983215332,-16.847000122070312 C34.3849983215332,-16.847000122070312 25.757999420166016,-1.8660000562667847 25.757999420166016,-1.8660000562667847 C33.236000061035156,5.216000080108643 38.11000061035156,15.62600040435791 38.11000061035156,26.04800033569336 C38.111000061035156,29.885000228881836 35.007999420166016,33 31.173999786376953,33 C27.70400047302246,33 24.832000732421875,30.448999404907227 24.316999435424805,27.1200008392334 C24.316999435424805,27.1200008392334 24.2549991607666,27.125 24.2549991607666,27.125 C24.2549991607666,27.125 24.2189998626709,26.082000732421875 24.2189998626709,26.082000732421875 C23.75,12.52400016784668 13.050999641418457,1.746000051498413 -0.0010000000474974513,1.746000051498413 C-13.052000045776367,1.746000051498413 -23.75,12.52400016784668 -24.2189998626709,26.082000732421875 C-24.2189998626709,26.082000732421875 -24.256000518798828,27.125 -24.256000518798828,27.125 C-24.256000518798828,27.125 -24.31800079345703,27.1200008392334 -24.31800079345703,27.1200008392334 C-24.83300018310547,30.448999404907227 -27.704999923706055,33 -31.173999786376953,33 C-35.007999420166016,33 -38.111000061035156,29.885000228881836 -38.111000061035156,26.047000885009766 C-38.111000061035156,26.047000885009766 -38.111000061035156,26.041000366210938 -38.111000061035156,26.041000366210938 C-38.111000061035156,26.041000366210938 -38.111000061035156,25.983999252319336 -38.111000061035156,25.983999252319336 C-38.111000061035156,25.983999252319336 -38.111000061035156,25.979999542236328 -38.111000061035156,25.979999542236328 C-38.01100158691406,15.185999870300293 -32.92900085449219,4.531000137329102 -24.95400047302246,-2.6059999465942383 C-24.95400047302246,-2.6059999465942383 -33.15299987792969,-16.847000122070312 -33.15299987792969,-16.847000122070312 C-34.452999114990234,-19.104000091552734 -33.68199920654297,-21.989999771118164 -31.429000854492188,-23.295000076293945 C-29.173999786376953,-24.600000381469727 -26.292999267578125,-23.822999954223633 -24.993000030517578,-21.566999435424805 C-24.993000030517578,-21.566999435424805 -17.17300033569336,-7.986999988555908 -17.17300033569336,-7.986999988555908 C-13.152999877929688,-10.076000213623047 -8.704000473022461,-11.456000328063965 -3.9690001010894775,-11.954000473022461 C-3.9690001010894775,-11.954000473022461 -3.9690001010894775,-28.27899932861328 -3.9690001010894775,-28.27899932861328 C-3.9690001010894775,-30.884000778198242 -1.8619999885559082,-33 0.7419999837875366,-33 C3.3469998836517334,-33 5.452000141143799,-30.884000778198242 5.452000141143799,-28.27899932861328 C5.452000141143799,-28.27899932861328 5.452000141143799,-11.767999649047852 5.452000141143799,-11.767999649047852 C10.003000259399414,-11.104999542236328 14.267000198364258,-9.621000289916992 18.11400032043457,-7.480999946594238z"></path></g><g opacity="1" transform="matrix(1,0,0,1,271.90399169921875,202.25)"><path fill="rgb(0,0,0)" fill-opacity="1" d=" M-5.452000141143799,-11.767999649047852 C-5.452000141143799,-11.767999649047852 -5.452000141143799,-28.27899932861328 -5.452000141143799,-28.27899932861328 C-5.452000141143799,-30.884000778198242 -3.3469998836517334,-33 -0.7409999966621399,-33 C1.8619999885559082,-33 3.9700000286102295,-30.884000778198242 3.9700000286102295,-28.27899932861328 C3.9700000286102295,-28.27899932861328 3.9700000286102295,-11.954000473022461 3.9700000286102295,-11.954000473022461 C8.704999923706055,-11.456000328063965 13.152000427246094,-10.076000213623047 17.17300033569336,-7.986999988555908 C17.17300033569336,-7.986999988555908 24.993000030517578,-21.566999435424805 24.993000030517578,-21.566999435424805 C26.292999267578125,-23.822999954223633 29.174999237060547,-24.600000381469727 31.43000030517578,-23.295000076293945 C33.68299865722656,-21.989999771118164 34.45399856567383,-19.104000091552734 33.15299987792969,-16.847000122070312 C33.15299987792969,-16.847000122070312 24.95400047302246,-2.6059999465942383 24.95400047302246,-2.6059999465942383 C32.92900085449219,4.531000137329102 38.012001037597656,15.185999870300293 38.111000061035156,25.979999542236328 C38.111000061035156,25.979999542236328 38.111000061035156,25.983999252319336 38.111000061035156,25.983999252319336 C38.111000061035156,25.983999252319336 38.111000061035156,26.041000366210938 38.111000061035156,26.041000366210938 C38.111000061035156,26.041000366210938 38.111000061035156,26.047000885009766 38.111000061035156,26.047000885009766 C38.111000061035156,29.885000228881836 35.007999420166016,33 31.173999786376953,33 C27.704999923706055,33 24.833999633789062,30.448999404907227 24.319000244140625,27.1200008392334 C24.319000244140625,27.1200008392334 24.256000518798828,27.125 24.256000518798828,27.125 C24.256000518798828,27.125 24.219999313354492,26.082000732421875 24.219999313354492,26.082000732421875 C23.750999450683594,12.52400016784668 13.052000045776367,1.746000051498413 0.0010000000474974513,1.746000051498413 C-13.052000045776367,1.746000051498413 -23.75,12.52400016784668 -24.219999313354492,26.082000732421875 C-24.219999313354492,26.082000732421875 -24.2549991607666,27.125 -24.2549991607666,27.125 C-24.2549991607666,27.125 -24.316999435424805,27.1200008392334 -24.316999435424805,27.1200008392334 C-24.832000732421875,30.448999404907227 -27.702999114990234,33 -31.17300033569336,33 C-35.007999420166016,33 -38.111000061035156,29.885000228881836 -38.11000061035156,26.04800033569336 C-38.11000061035156,15.62600040435791 -33.236000061035156,5.216000080108643 -25.759000778198242,-1.8660000562667847 C-25.759000778198242,-1.8660000562667847 -34.38600158691406,-16.847000122070312 -34.38600158691406,-16.847000122070312 C-35.683998107910156,-19.104000091552734 -34.91400146484375,-21.989999771118164 -32.6609992980957,-23.295000076293945 C-30.4060001373291,-24.600000381469727 -27.52400016784668,-23.822999954223633 -26.224000930786133,-21.566999435424805 C-26.224000930786133,-21.566999435424805 -18.113000869750977,-7.480999946594238 -18.113000869750977,-7.480999946594238 C-14.265999794006348,-9.621000289916992 -10.003000259399414,-11.104999542236328 -5.452000141143799,-11.767999649047852z"></path><path stroke-linecap="butt" stroke-linejoin="miter" fill-opacity="0" stroke-miterlimit="4" stroke="rgb(0,0,0)" stroke-opacity="1" stroke-width="2" d=" M-5.452000141143799,-11.767999649047852 C-5.452000141143799,-11.767999649047852 -5.452000141143799,-28.27899932861328 -5.452000141143799,-28.27899932861328 C-5.452000141143799,-30.884000778198242 -3.3469998836517334,-33 -0.7409999966621399,-33 C1.8619999885559082,-33 3.9700000286102295,-30.884000778198242 3.9700000286102295,-28.27899932861328 C3.9700000286102295,-28.27899932861328 3.9700000286102295,-11.954000473022461 3.9700000286102295,-11.954000473022461 C8.704999923706055,-11.456000328063965 13.152000427246094,-10.076000213623047 17.17300033569336,-7.986999988555908 C17.17300033569336,-7.986999988555908 24.993000030517578,-21.566999435424805 24.993000030517578,-21.566999435424805 C26.292999267578125,-23.822999954223633 29.174999237060547,-24.600000381469727 31.43000030517578,-23.295000076293945 C33.68299865722656,-21.989999771118164 34.45399856567383,-19.104000091552734 33.15299987792969,-16.847000122070312 C33.15299987792969,-16.847000122070312 24.95400047302246,-2.6059999465942383 24.95400047302246,-2.6059999465942383 C32.92900085449219,4.531000137329102 38.012001037597656,15.185999870300293 38.111000061035156,25.979999542236328 C38.111000061035156,25.979999542236328 38.111000061035156,25.983999252319336 38.111000061035156,25.983999252319336 C38.111000061035156,25.983999252319336 38.111000061035156,26.041000366210938 38.111000061035156,26.041000366210938 C38.111000061035156,26.041000366210938 38.111000061035156,26.047000885009766 38.111000061035156,26.047000885009766 C38.111000061035156,29.885000228881836 35.007999420166016,33 31.173999786376953,33 C27.704999923706055,33 24.833999633789062,30.448999404907227 24.319000244140625,27.1200008392334 C24.319000244140625,27.1200008392334 24.256000518798828,27.125 24.256000518798828,27.125 C24.256000518798828,27.125 24.219999313354492,26.082000732421875 24.219999313354492,26.082000732421875 C23.750999450683594,12.52400016784668 13.052000045776367,1.746000051498413 0.0010000000474974513,1.746000051498413 C-13.052000045776367,1.746000051498413 -23.75,12.52400016784668 -24.219999313354492,26.082000732421875 C-24.219999313354492,26.082000732421875 -24.2549991607666,27.125 -24.2549991607666,27.125 C-24.2549991607666,27.125 -24.316999435424805,27.1200008392334 -24.316999435424805,27.1200008392334 C-24.832000732421875,30.448999404907227 -27.702999114990234,33 -31.17300033569336,33 C-35.007999420166016,33 -38.111000061035156,29.885000228881836 -38.11000061035156,26.04800033569336 C-38.11000061035156,15.62600040435791 -33.236000061035156,5.216000080108643 -25.759000778198242,-1.8660000562667847 C-25.759000778198242,-1.8660000562667847 -34.38600158691406,-16.847000122070312 -34.38600158691406,-16.847000122070312 C-35.683998107910156,-19.104000091552734 -34.91400146484375,-21.989999771118164 -32.6609992980957,-23.295000076293945 C-30.4060001373291,-24.600000381469727 -27.52400016784668,-23.822999954223633 -26.224000930786133,-21.566999435424805 C-26.224000930786133,-21.566999435424805 -18.113000869750977,-7.480999946594238 -18.113000869750977,-7.480999946594238 C-14.265999794006348,-9.621000289916992 -10.003000259399414,-11.104999542236328 -5.452000141143799,-11.767999649047852z"></path></g></g></g><g transform="matrix(1,0,0,1,0,0)" opacity="1" style="display: block;"><g opacity="1" transform="matrix(1,0,0,1,341.3739929199219,504.968994140625)"><g opacity="1" transform="matrix(0.7899410128593445,-0.6131828427314758,0.6131828427314758,0.7899410128593445,100.03813171386719,-77.65347290039062)"></g><g opacity="1" transform="matrix(1,0,0,1,0,0)"><g opacity="1" transform="matrix(1,0,0,1,0,0)"></g></g><g opacity="1" transform="matrix(1,0,0,1,0,0)"><g opacity="1" transform="matrix(1,0,0,1,-200,-200)"></g></g><g opacity="1" transform="matrix(1,0,0,1,-135,0)"><g opacity="1" transform="matrix(1,0,0,1,0,0)"></g></g></g><g opacity="1" transform="matrix(1,0,0,1,0,0)"><g opacity="1" transform="matrix(1,0,0,1,341.3739929199219,504.968994140625)"><path stroke-linecap="round" stroke-linejoin="round" fill-opacity="0" stroke="rgb(102,52,45)" stroke-opacity="1" stroke-width="34" d=" M0,0 C0,0 0,0 0,0 C0,0 -12.34,-65.69 -9.1,-91.4 C-5.86,-117.12 22.38,-177.69 22.38,-177.69"></path><g opacity="1" transform="matrix(0.7899410128593445,-0.6131828427314758,0.6131828427314758,0.7899410128593445,100.03813171386719,-77.65347290039062)"></g></g></g></g></g></svg>