<svg xmlns="http://www.w3.org/2000/svg" width="800" height="800" style="width:100%;height:100%"><defs><clipPath id="a"><path d="M0 0h800v800H0z"/></clipPath><clipPath id="b"><path d="M0 0h400v400H0z"/></clipPath><clipPath id="c"><path d="M0 0h500v500H0z"/></clipPath></defs><g clip-path="url(#a)"><path stroke-linecap="round" stroke-linejoin="round" stroke="#5E79BC" stroke-width="38" d="M429 705s0 0 0 0l8.07-118.87 8.06-118.87M375 705s0 0 0 0l9.69-109.64 9.7-109.63" fill="none" display="block"/><g clip-path="url(#b)" transform="rotate(-20 822.4 -237.04)" display="block"><g display="block"><path fill="#5E79BB" d="M258.7 280.27a58.83 58.83 0 1 1-117.65 0 58.83 58.83 0 0 1 117.66 0z"/><path fill="#66342C" d="M151.83 157.7a48.04 48.04 0 1 1 96.1 0v88.74h-96.1V157.7z"/><path fill="#301A12" d="M232.72 122.64a48.23 48.23 0 0 0-9.8-7.1v52.21H178.3v-52.99a48.14 48.14 0 0 0-9.8 6.56v46.43h-16.68v78.69h96.1v-78.69h-15.2v-45.11z"/></g></g><path stroke-linecap="round" stroke-linejoin="round" stroke="#66342D" stroke-width="34" d="M495 168s-17.95 59.69-28.98 79.68c-11.03 19.98-51.95 67-51.95 67" fill="none" display="block"/><g clip-path="url(#c)" transform="rotate(-10 533.86 -630.86) scale(.8)" display="block"><g display="block"><path fill="#D0AC9A" d="M193.94 136.22a16.36 16.36 0 0 1 22.36 6l6.22 10.8a16.4 16.4 0 0 1-6 22.38 16.36 16.36 0 0 1-22.37-6l-6.22-10.8a16.4 16.4 0 0 1 6-22.38z"/><path stroke="#66342C" stroke-width="11.3" d="M193.94 136.22s0 0 0 0a16.36 16.36 0 0 1 22.36 6l6.22 10.8a16.4 16.4 0 0 1-6 22.38 16.36 16.36 0 0 1-22.37-6l-6.22-10.8a16.4 16.4 0 0 1 6-22.38z" fill="none"/><path fill="#66342C" d="M192.21 115.97a32.78 32.78 0 1 1 0 65.56 32.78 32.78 0 0 1 0-65.56z"/><path fill="#D0AC9A" d="M192.21 131.8a16.95 16.95 0 1 1 0 33.9 16.95 16.95 0 0 1 0-33.9z"/><path fill="#66342C" d="M306.94 115.97a32.78 32.78 0 1 1 0 65.56 32.78 32.78 0 0 1 0-65.56z"/><path fill="#D0AC9A" d="M306.94 131.8a16.95 16.95 0 1 1 0 33.9 16.95 16.95 0 0 1 0-33.9z"/><path fill="#B556A0" d="M249.86 135.19c60.86 0 110.2 49.34 110.2 110.2s-49.34 110.2-110.2 110.2c-60.87 0-110.2-49.33-110.2-110.2 0-60.86 49.33-110.2 110.2-110.2z"/><path fill="#66342C" d="M249.86 146.49c59.3 0 107.38 48.07 107.38 107.38 0 59.3-48.08 107.38-107.38 107.38s-107.38-48.08-107.38-107.38 48.08-107.38 107.38-107.38z"/><path fill="#B556A0" d="M262.02 140.27L228.1 162.3v-44.05l33.9 22.02z"/><path fill="#B556A0" d="M237.7 140.27l33.91-22.02v44.05l-33.91-22.03z"/><path fill="#D0AC9A" d="M250.42 347.12c31.84 0 57.65-25.56 57.65-57.1h-115.3c0 31.54 25.82 57.1 57.65 57.1z"/><path fill="#D0AC9A" d="M308.07 290.02a19.77 19.77 0 0 1-19.77 19.77h-75.76a19.76 19.76 0 0 1 0-39.53h75.77a19.76 19.76 0 0 1 19.76 19.76z"/><path fill="#301A12" d="M250.42 306.98c12.97 0 23.48-10.65 23.48-23.8h-46.97c0 13.15 10.52 23.8 23.49 23.8z"/><path fill="#301A12" d="M273.9 283.19a8.23 8.23 0 0 1-8.23 8.23h-30.5a8.23 8.23 0 0 1 0-16.47h30.5a8.23 8.23 0 0 1 8.23 8.24z"/><path d="M216.08 225.9l4.58-7.96a2.66 2.66 0 0 1 3.64-.97 2.67 2.67 0 0 1 .97 3.64l-4.87 8.47c4.22 4 6.98 9.88 6.98 15.77a3.92 3.92 0 0 1-3.92 3.93 3.92 3.92 0 0 1-3.88-3.32h-.03l-.02-.59c-.27-7.66-6.31-13.75-13.69-13.75s-13.42 6.09-13.69 13.75l-.02.6-.03-.01a3.92 3.92 0 0 1-3.88 3.32 3.92 3.92 0 0 1-3.92-3.93v-.03a22.4 22.4 0 0 1 7.44-16.16l-4.64-8.05a2.67 2.67 0 0 1 .98-3.64 2.66 2.66 0 0 1 3.64.97l4.42 7.68a20.89 20.89 0 0 1 7.46-2.24v-9.23a2.67 2.67 0 0 1 2.66-2.67 2.66 2.66 0 0 1 2.66 2.67v9.33a20.89 20.89 0 0 1 7.16 2.42z"/><path stroke="#000" stroke-width="1.13" d="M216.08 225.9l4.58-7.96a2.66 2.66 0 0 1 3.64-.97 2.67 2.67 0 0 1 .97 3.64l-4.87 8.47c4.22 4 6.98 9.88 6.98 15.77a3.92 3.92 0 0 1-3.92 3.93 3.92 3.92 0 0 1-3.88-3.32h-.03l-.02-.59c-.27-7.66-6.31-13.75-13.69-13.75s-13.42 6.09-13.69 13.75l-.02.6-.03-.01a3.92 3.92 0 0 1-3.88 3.32 3.92 3.92 0 0 1-3.92-3.93v0-.03 0a22.4 22.4 0 0 1 7.44-16.16l-4.64-8.05a2.67 2.67 0 0 1 .98-3.64 2.66 2.66 0 0 1 3.64.97l4.42 7.68a20.89 20.89 0 0 1 7.46-2.24v-9.23a2.67 2.67 0 0 1 2.66-2.67 2.66 2.66 0 0 1 2.66 2.67v9.33a20.89 20.89 0 0 1 7.16 2.42z" fill="none"/><path d="M290.1 223.48v-9.33a2.67 2.67 0 0 1 2.66-2.67 2.67 2.67 0 0 1 2.66 2.67v9.23a20.89 20.89 0 0 1 7.46 2.24l4.42-7.68a2.66 2.66 0 0 1 3.64-.97 2.67 2.67 0 0 1 .98 3.64l-4.64 8.05a22.4 22.4 0 0 1 7.44 16.15v.04a3.92 3.92 0 0 1-3.92 3.93 3.92 3.92 0 0 1-3.88-3.32h-.03l-.02-.59c-.27-7.66-6.31-13.75-13.69-13.75s-13.42 6.09-13.69 13.75l-.02.6-.03-.01a3.92 3.92 0 0 1-3.88 3.32 3.92 3.92 0 0 1-3.92-3.93c0-5.89 2.76-11.77 6.98-15.77l-4.87-8.47a2.67 2.67 0 0 1 .97-3.64 2.66 2.66 0 0 1 3.64.97l4.58 7.96a20.89 20.89 0 0 1 7.16-2.42z"/><path stroke="#000" stroke-width="1.13" d="M290.1 223.48v-9.33a2.67 2.67 0 0 1 2.66-2.67 2.67 2.67 0 0 1 2.66 2.67v9.23a20.89 20.89 0 0 1 7.46 2.24l4.42-7.68a2.66 2.66 0 0 1 3.64-.97 2.67 2.67 0 0 1 .98 3.64l-4.64 8.05a22.4 22.4 0 0 1 7.44 16.15v.04a3.92 3.92 0 0 1-3.92 3.93 3.92 3.92 0 0 1-3.88-3.32h-.03l-.02-.59c-.27-7.66-6.31-13.75-13.69-13.75s-13.42 6.09-13.69 13.75l-.02.6-.03-.01a3.92 3.92 0 0 1-3.88 3.32 3.92 3.92 0 0 1-3.92-3.93c0-5.89 2.76-11.77 6.98-15.77l-4.87-8.47a2.67 2.67 0 0 1 .97-3.64 2.66 2.66 0 0 1 3.64.97l4.58 7.96a20.89 20.89 0 0 1 7.16-2.42z" fill="none"/></g></g><path stroke-linecap="round" stroke-linejoin="round" stroke="#66342D" stroke-width="34" d="M493 169s0 0 0 0l-86.45 89.94-86.44 89.94" fill="none" display="block"/></g></svg>