<svg xmlns="http://www.w3.org/2000/svg" width="800" height="800" style="width:100%;height:100%"><defs><clipPath id="a"><path d="M0 0h800v800H0z"/></clipPath><clipPath id="b"><path d="M0 0h400v400H0z"/></clipPath><clipPath id="c"><path d="M0 0h500v500H0z"/></clipPath></defs><g clip-path="url(#a)"><g display="block"><g><path stroke-linecap="round" stroke-linejoin="round" stroke="#5E79BC" stroke-width="38" d="M429 705s0 0 0 0 .41-89.75.54-117.41c.13-27.66.54-117.41.54-117.41" fill="none"/></g></g><g display="block"><g><path stroke-linecap="round" stroke-linejoin="round" stroke="#5E79BC" stroke-width="38" d="M375 705s0 0 0 0 .53-87.57.69-114.57c.16-26.99.69-114.57.69-114.57" fill="none"/></g></g><g clip-path="url(#b)" transform="rotate(-6.038 1982.188 -1542.18)" display="block"><g display="block"><path fill="#5E79BB" d="M258.707 280.266c0 32.49-26.339 58.83-58.83 58.83-32.49 0-58.83-26.34-58.83-58.83 0-32.49 26.34-58.83 58.83-58.83 32.491 0 58.83 26.34 58.83 58.83z"/><path fill="#66342C" d="M151.833 157.703c0-26.534 21.51-48.044 48.044-48.044 26.535 0 48.045 21.51 48.045 48.044v88.736h-96.09v-88.736z"/><path fill="#301A12" d="M232.724 122.64a48.225 48.225 0 0 0-9.805-7.106v52.22h-44.613V114.76a48.14 48.14 0 0 0-9.805 6.557v46.436h-16.668v78.685h96.089v-78.685h-15.198V122.64z"/></g></g><g display="block"><g><path stroke-linecap="round" stroke-linejoin="round" stroke="#66342D" stroke-width="34" d="M534.063 454.549s0 0 0 0-38.38-52.16-50.08-68.98c-11.7-16.82-47.23-70.95-47.23-70.95" fill="none"/></g></g><g clip-path="url(#c)" transform="rotate(-3.019 890.807 -3216.857) scale(.8)" display="block"><g display="block"><path fill="#D0AC9A" d="M193.937 136.225c7.834-4.523 17.847-1.836 22.364 6.001l6.22 10.79c4.516 7.838 1.828 17.857-6.006 22.38-7.834 4.523-17.846 1.837-22.364-6l-6.22-10.79c-4.516-7.837-1.827-17.858 6.006-22.381z"/><path stroke="#66342C" stroke-width="11.303" d="M193.937 136.225s0 0 0 0c7.834-4.523 17.847-1.836 22.364 6.001l6.22 10.79c4.516 7.838 1.828 17.857-6.006 22.38-7.834 4.523-17.846 1.837-22.364-6l-6.22-10.79c-4.516-7.837-1.827-17.858 6.006-22.381z" fill="none"/><path fill="#66342C" d="M192.213 115.971c18.104 0 32.78 14.675 32.78 32.779 0 18.103-14.676 32.779-32.78 32.779-18.103 0-32.778-14.676-32.778-32.78 0-18.103 14.675-32.778 32.778-32.778z"/><path fill="#D0AC9A" d="M192.213 131.795c9.364 0 16.955 7.591 16.955 16.955 0 9.363-7.591 16.954-16.955 16.954-9.363 0-16.954-7.59-16.954-16.954s7.591-16.955 16.954-16.955z"/><path fill="#66342C" d="M306.939 115.971c18.103 0 32.779 14.675 32.779 32.779 0 18.103-14.676 32.779-32.78 32.779-18.102 0-32.778-14.676-32.778-32.78 0-18.103 14.676-32.778 32.779-32.778z"/><path fill="#D0AC9A" d="M306.939 131.795c9.363 0 16.954 7.591 16.954 16.955 0 9.363-7.59 16.954-16.954 16.954s-16.955-7.59-16.955-16.954 7.591-16.955 16.955-16.955z"/><path fill="#B556A0" d="M249.859 135.186c60.864 0 110.204 49.34 110.204 110.205 0 60.863-49.34 110.204-110.204 110.204-60.864 0-110.205-49.34-110.205-110.204 0-60.864 49.34-110.205 110.205-110.205z"/><path fill="#66342C" d="M249.859 146.49c59.303 0 107.378 48.074 107.378 107.378 0 59.303-48.075 107.378-107.378 107.378-59.304 0-107.379-48.075-107.379-107.378 0-59.304 48.075-107.379 107.379-107.379z"/><path fill="#B556A0" d="M262.017 140.273l-33.91 22.024v-44.049l33.91 22.025z"/><path fill="#B556A0" d="M237.7 140.273l33.91-22.025v44.05l-33.91-22.025z"/><path fill="#D0AC9A" d="M250.423 347.117c31.836 0 57.645-25.562 57.645-57.095h-115.29c0 31.533 25.809 57.095 57.645 57.095z"/><path fill="#D0AC9A" d="M308.07 290.021c0 10.915-8.85 19.764-19.765 19.764h-75.762c-10.915 0-19.763-8.849-19.763-19.764s8.848-19.764 19.763-19.764h75.762c10.916 0 19.764 8.85 19.764 19.764z"/><path fill="#301A12" d="M250.418 306.978c12.97 0 23.484-10.65 23.484-23.79h-46.97c0 13.14 10.515 23.79 23.486 23.79z"/><path fill="#301A12" d="M273.902 283.189a8.235 8.235 0 0 1-8.234 8.235h-30.5a8.235 8.235 0 0 1 0-16.47h30.5a8.235 8.235 0 0 1 8.234 8.235z"/><path d="M216.077 225.904l4.584-7.961a2.66 2.66 0 0 1 3.638-.977 2.672 2.672 0 0 1 .974 3.644l-4.876 8.467c4.227 4.002 6.981 9.885 6.981 15.775a3.924 3.924 0 0 1-3.92 3.93 3.925 3.925 0 0 1-3.875-3.324l-.035.003-.02-.59c-.265-7.662-6.312-13.753-13.688-13.753s-13.422 6.091-13.687 13.754l-.021.59-.035-.004a3.925 3.925 0 0 1-3.875 3.323 3.925 3.925 0 0 1-3.92-3.93v-.002-.033-.002c.056-6.1 2.928-12.122 7.436-16.155l-4.634-8.049a2.671 2.671 0 0 1 .974-3.644 2.66 2.66 0 0 1 3.638.977l4.419 7.675a20.885 20.885 0 0 1 7.462-2.242v-9.226a2.665 2.665 0 0 1 2.663-2.668 2.664 2.664 0 0 1 2.662 2.668v9.33a20.89 20.89 0 0 1 7.155 2.424z"/><path stroke="#000" stroke-width="1.1303" d="M216.077 225.904l4.584-7.961a2.66 2.66 0 0 1 3.638-.977 2.672 2.672 0 0 1 .974 3.644l-4.876 8.467c4.227 4.002 6.981 9.885 6.981 15.775a3.924 3.924 0 0 1-3.92 3.93 3.925 3.925 0 0 1-3.875-3.324l-.035.003-.02-.59c-.265-7.662-6.312-13.753-13.688-13.753s-13.422 6.091-13.687 13.754l-.021.59-.035-.004a3.925 3.925 0 0 1-3.875 3.323 3.925 3.925 0 0 1-3.92-3.93v-.002-.033-.002c.056-6.1 2.928-12.122 7.436-16.155l-4.634-8.049a2.671 2.671 0 0 1 .974-3.644 2.66 2.66 0 0 1 3.638.977l4.419 7.675a20.885 20.885 0 0 1 7.462-2.242v-9.226a2.665 2.665 0 0 1 2.663-2.668 2.664 2.664 0 0 1 2.662 2.668v9.33a20.89 20.89 0 0 1 7.155 2.424z" fill="none"/><g><path d="M290.099 223.48v-9.33a2.665 2.665 0 0 1 2.662-2.668 2.666 2.666 0 0 1 2.662 2.668v9.226a20.886 20.886 0 0 1 7.462 2.242l4.42-7.675a2.66 2.66 0 0 1 3.637-.977 2.67 2.67 0 0 1 .974 3.644l-4.634 8.049c4.508 4.033 7.38 10.055 7.436 16.155V244.852a3.925 3.925 0 0 1-3.92 3.93 3.924 3.924 0 0 1-3.874-3.324l-.036.003-.02-.59c-.265-7.662-6.312-13.753-13.688-13.753-7.377 0-13.423 6.091-13.688 13.754l-.02.59-.035-.004a3.925 3.925 0 0 1-3.875 3.323 3.924 3.924 0 0 1-3.92-3.929c0-5.89 2.754-11.773 6.98-15.775l-4.876-8.467a2.672 2.672 0 0 1 .975-3.644 2.66 2.66 0 0 1 3.638.977l4.584 7.96a20.887 20.887 0 0 1 7.156-2.422z"/><path stroke="#000" stroke-width="1.1303" d="M290.099 223.48v-9.33a2.665 2.665 0 0 1 2.662-2.668 2.666 2.666 0 0 1 2.662 2.668v9.226a20.886 20.886 0 0 1 7.462 2.242l4.42-7.675a2.66 2.66 0 0 1 3.637-.977 2.67 2.67 0 0 1 .974 3.644l-4.634 8.049c4.508 4.033 7.38 10.055 7.436 16.155V244.852a3.925 3.925 0 0 1-3.92 3.93 3.924 3.924 0 0 1-3.874-3.324l-.036.003-.02-.59c-.265-7.662-6.312-13.753-13.688-13.753-7.377 0-13.423 6.091-13.688 13.754l-.02.59-.035-.004a3.925 3.925 0 0 1-3.875 3.323 3.924 3.924 0 0 1-3.92-3.929c0-5.89 2.754-11.773 6.98-15.775l-4.876-8.467a2.672 2.672 0 0 1 .975-3.644 2.66 2.66 0 0 1 3.638.977l4.584 7.96a20.887 20.887 0 0 1 7.156-2.422z" fill="none"/></g></g></g><g display="block"><g><path stroke-linecap="round" stroke-linejoin="round" stroke="#66342D" stroke-width="34" d="M394.576 476.3s0 0 0 0-42.71-43.72-51.5-66.92c-8.79-23.2-5.77-84.24-5.77-84.24" fill="none"/></g></g></g></svg>